<?xml version="1.0" encoding="utf-8"?>
<svg xmlns="http://www.w3.org/2000/svg" viewBox="-1.942 399.373 285.937 105.507" xmlns:bx="https://boxy-svg.com" width="285.937px" height="105.507px"><path fill="#FFD43B" d="M 67.56 403.291 C 65.4 401.917 62.6 401.917 60.44 403.291 L 33.26 420.587 L 9.6 420.587 C 4.3 420.587 0 424.691 0 429.75 L 0 490.837 C 0 495.896 4.3 500 9.6 500 L 51.2 500 L 51.2 481.674 C 51.2 474.935 56.94 469.456 64 469.456 C 71.06 469.456 76.8 474.935 76.8 481.674 L 76.8 500 L 118.4 500 C 123.7 500 128 495.896 128 490.837 L 128 429.75 C 128 424.691 123.7 420.587 118.4 420.587 L 94.74 420.587 L 67.56 403.291 Z M 19.2 438.913 L 25.6 438.913 C 27.36 438.913 28.8 440.287 28.8 441.967 L 28.8 454.185 C 28.8 455.865 27.36 457.239 25.6 457.239 L 19.2 457.239 C 17.44 457.239 16 455.865 16 454.185 L 16 441.967 C 16 440.287 17.44 438.913 19.2 438.913 Z M 99.2 441.967 C 99.2 440.287 100.64 438.913 102.4 438.913 L 108.8 438.913 C 110.56 438.913 112 440.287 112 441.967 L 112 454.185 C 112 455.865 110.56 457.239 108.8 457.239 L 102.4 457.239 C 100.64 457.239 99.2 455.865 99.2 454.185 L 99.2 441.967 Z M 19.2 463.348 L 25.6 463.348 C 27.36 463.348 28.8 464.722 28.8 466.402 L 28.8 478.619 C 28.8 480.299 27.36 481.674 25.6 481.674 L 19.2 481.674 C 17.44 481.674 16 480.299 16 478.619 L 16 466.402 C 16 464.722 17.44 463.348 19.2 463.348 Z M 99.2 466.402 C 99.2 464.722 100.64 463.348 102.4 463.348 L 108.8 463.348 C 110.56 463.348 112 464.722 112 466.402 L 112 478.619 C 112 480.299 110.56 481.674 108.8 481.674 L 102.4 481.674 C 100.64 481.674 99.2 480.299 99.2 478.619 L 99.2 466.402 Z M 46.4 435.858 C 46.4 422.927 61.067 414.844 72.8 421.31 C 78.245 424.311 81.6 429.857 81.6 435.858 C 81.6 448.79 66.933 456.873 55.2 450.407 C 49.755 447.406 46.4 441.86 46.4 435.858 Z M 64 426.695 C 62.24 426.695 60.8 428.07 60.8 429.75 L 60.8 435.858 C 60.8 437.538 62.24 438.913 64 438.913 L 70.4 438.913 C 72.16 438.913 73.6 437.538 73.6 435.858 C 73.6 434.179 72.16 432.804 70.4 432.804 L 67.2 432.804 L 67.2 429.75 C 67.2 428.07 65.76 426.695 64 426.695 Z" style=""/><text style="fill: rgb(51, 51, 51); font-family: &quot;Albert Sans&quot;; font-size: 28px; font-weight: 900; white-space: pre;" transform="matrix(1, 0, 0, 1, -7.767364, 204.54111)"><tspan x="147.257" y="264.9">Go2School</tspan><tspan x="147.257" dy="1em">​</tspan></text><defs><style bx:fonts="Albert Sans">@import url(https://fonts.googleapis.com/css2?family=Albert+Sans%3Aital%2Cwght%400%2C100..900%3B1%2C100..900&amp;display=swap);</style><bx:export><bx:file format="png" excluded="true"/><bx:file format="svg"/></bx:export></defs></svg>